<?xml version="1.0" encoding="UTF-8"?>
<svg version="1.1" xmlns="http://www.w3.org/2000/svg" width="2150" height="1365">
<path d="M0 0 C5.31727038 4.08863281 10.53268799 8.98046583 13.04296875 15.33984375 C13.37890625 17.9609375 13.37890625 17.9609375 13.41796875 20.77734375 C13.44632813 21.70417969 13.4746875 22.63101563 13.50390625 23.5859375 C12.89875381 27.2014669 11.61415867 28.75560211 9.04296875 31.33984375 C-8.15202596 41.7864104 -30.80465617 38.47240236 -49.95703125 37.33984375 C-50.36429443 37.99355957 -50.77155762 38.64727539 -51.19116211 39.32080078 C-58.70471521 51.37597824 -66.21823829 63.42755539 -73.95703125 75.33984375 C-73.29574219 75.42363281 -72.63445313 75.50742188 -71.953125 75.59375 C-67.96593693 76.5866482 -64.62955276 78.34529412 -61.01953125 80.27734375 C-60.27171387 80.67703369 -59.52389648 81.07672363 -58.75341797 81.48852539 C-43.41173385 89.87581205 -23.52651177 102.73159927 -17.08105469 119.63745117 C-15.96314345 122.34304576 -14.97701619 124.20757759 -12.95703125 126.33984375 C-9.02305614 127.72422091 -5.1387783 128.09726068 -0.99029541 128.38418579 C2.51139722 128.63073279 5.99795862 129.0236823 9.48828125 129.39453125 C10.20355988 129.46684464 10.9188385 129.53915802 11.65579224 129.61366272 C40.57173038 132.62625841 73.61425473 140.54408402 99.75390625 153.625 C111.64351537 159.4983955 121.46062931 159.8467716 134.640625 159.4453125 C169.79021453 158.47193925 200.99327806 179.67953503 225.48486328 202.69482422 C244.76215962 220.98032218 262.6456568 245.40920342 263.48046875 272.90234375 C263.21295799 284.27736642 259.36024485 292.93145309 251.41796875 300.98828125 C248.30874515 303.82400833 245.32874155 305.69859632 241.50390625 307.44140625 C237.98010555 309.37807763 236.41202447 310.73434604 235.1328125 314.5703125 C234.71787855 316.21518748 234.3351667 317.86843651 233.98046875 319.52734375 C233.5161841 321.3319436 233.04198733 323.13401839 232.55859375 324.93359375 C232.31689453 325.83980469 232.07519531 326.74601562 231.82617188 327.6796875 C229.70855123 334.8722045 226.33076529 341.62182446 223.04296875 348.33984375 C222.51098877 349.43256592 222.51098877 349.43256592 221.96826172 350.54736328 C210.40780007 374.00631176 193.36724475 394.85903901 173.04296875 411.33984375 C173.5534375 412.23509766 173.5534375 412.23509766 174.07421875 413.1484375 C191.33955046 444.05154453 198.62957825 474.0660027 194.04296875 509.33984375 C211.13443738 518.51952189 228.50929292 527.13246155 245.86981201 535.78759766 C249.84690454 537.77095109 253.82280981 539.75668172 257.79882812 541.7421875 C265.5457425 545.61034511 273.29392744 549.47594878 281.04296875 553.33984375 C281.5755127 552.66219971 282.10805664 551.98455566 282.65673828 551.28637695 C283.36427246 550.39265381 284.07180664 549.49893066 284.80078125 548.578125 C285.4983252 547.69423096 286.19586914 546.81033691 286.91455078 545.8996582 C296.00607842 534.96542245 307.1173986 530.2988389 321.04296875 528.33984375 C338.10826486 526.89296034 353.97531147 532.68743739 367.04296875 543.6171875 C367.70296875 544.18566406 368.36296875 544.75414062 369.04296875 545.33984375 C369.68234375 545.83613281 370.32171875 546.33242188 370.98046875 546.84375 C389.90905116 562.07057335 402.76455534 588.21987664 405.73046875 612.02734375 C407.59750506 636.33771232 405.39522299 662.64820481 389.29296875 682.15234375 C382.17604569 689.74463381 371.50414892 695.60999775 360.9909668 696.5168457 C339.30011185 697.12481942 321.5909768 692.29060849 305.1796875 677.4140625 C284.65566486 657.85141165 274.34363779 629.30422806 273.04296875 601.33984375 C272.98153383 598.33392103 272.99367323 595.34687038 273.04296875 592.33984375 C272.19908096 592.08072205 271.35519318 591.82160034 270.48573303 591.55462646 C266.82381414 590.26251483 263.41432956 588.65509604 259.95874023 586.90332031 C259.2764888 586.56153748 258.59423737 586.21975464 257.89131165 585.86761475 C255.6470288 584.74224149 253.40559583 583.61130711 251.1640625 582.48046875 C249.58972923 581.69016177 248.01518644 580.90027205 246.44044495 580.11077881 C242.29600702 578.03191878 238.15381644 575.94862332 234.01226807 573.86401367 C227.41035796 570.54149311 220.8058109 567.22423313 214.19984627 563.90978241 C211.91205759 562.76084953 209.62568933 561.60912875 207.33946228 560.45709229 C193.6544366 552.35271804 193.6544366 552.35271804 179.04296875 548.33984375 C177.62245852 550.33532241 176.39418675 552.29128371 175.16796875 554.40234375 C162.78551784 574.6264057 142.94162413 594.75054442 119.29296875 600.71484375 C118.22046875 600.92109375 117.14796875 601.12734375 116.04296875 601.33984375 C116.17574219 602.24863281 116.30851562 603.15742187 116.4453125 604.09375 C116.62191406 605.35058594 116.79851563 606.60742188 116.98046875 607.90234375 C117.15449219 609.12050781 117.32851562 610.33867188 117.5078125 611.59375 C124.02143874 664.47961444 115.97166628 720.43820651 96.10473633 769.68774414 C95.69118896 770.73696045 95.2776416 771.78617676 94.8515625 772.8671875 C94.47829834 773.78234131 94.10503418 774.69749512 93.72045898 775.64038086 C92.89902644 778.91338254 93.28687764 781.06955443 94.04296875 784.33984375 C94.31850586 785.56840088 94.31850586 785.56840088 94.59960938 786.82177734 C94.79748047 787.61922363 94.99535156 788.41666992 95.19921875 789.23828125 C95.41707031 790.1303125 95.63492188 791.02234375 95.859375 791.94140625 C96.31328906 793.78300042 96.7690041 795.62415166 97.2265625 797.46484375 C104.89704116 828.96373243 98.99110988 863.46734842 82.66455078 891.35327148 C77.7604802 899.4143495 72.05024602 906.2719432 65.40673828 912.94824219 C64.20695131 914.17251461 63.05613398 915.44437441 61.9140625 916.72265625 C43.58299207 936.73975469 14.50050828 948.02753959 -12.21386719 949.4609375 C-42.64006972 950.687306 -71.41617095 942.011419 -94.95703125 922.33984375 C-95.9521875 921.50839844 -96.94734375 920.67695312 -97.97265625 919.8203125 C-107.75253036 911.38053319 -115.7727371 901.53946837 -122.20703125 890.33984375 C-122.54138184 889.76331055 -122.87573242 889.18677734 -123.22021484 888.59277344 C-124.83789853 885.70272706 -126.07770151 882.9632693 -127.08984375 879.8046875 C-130.06825937 871.34711107 -133.7633549 868.38641348 -141.61499023 864.39697266 C-146.24328772 862.1951709 -150.9027344 860.06566072 -155.56835938 857.94433594 C-188.80162283 842.20881667 -220.40630125 818.01073621 -247.1484375 792.9375 C-249.31567218 790.93303398 -251.50907995 789.00475632 -253.75 787.0859375 C-256.74731621 784.47854485 -259.55726017 781.76048092 -262.31640625 778.90234375 C-263.03957031 778.15339844 -263.76273438 777.40445313 -264.5078125 776.6328125 C-265.99707353 775.0800661 -267.47864801 773.51991708 -268.953125 771.953125 C-269.67113281 771.21449219 -270.38914062 770.47585938 -271.12890625 769.71484375 C-271.76924805 769.04195312 -272.40958984 768.3690625 -273.06933594 767.67578125 C-274.8556902 766.10445987 -274.8556902 766.10445987 -277.02441406 766.53100586 C-279.84816672 767.71280128 -282.34933528 769.30074202 -284.95703125 770.90234375 C-316.88848681 789.67776633 -355.52197476 794.55368429 -391.60961914 787.72875977 C-395.04648414 787.15934469 -398.49874149 786.7594348 -401.95703125 786.33984375 C-413.10730637 814.42597838 -424.22606674 842.52404717 -435.26953125 870.65234375 C-435.63717464 871.58874695 -435.63717464 871.58874695 -436.01224518 872.54406738 C-438.99519589 880.14212788 -441.97681785 887.74070918 -444.95703125 895.33984375 C-442.14790558 898.17027467 -439.36237457 900.88647337 -436.26953125 903.40234375 C-417.69123961 919.60149446 -404.48892005 944.81268636 -402.73461914 969.46533203 C-402.22875403 983.8231982 -402.53459969 997.59472314 -406.95703125 1011.33984375 C-407.27051514 1012.32017578 -407.27051514 1012.32017578 -407.59033203 1013.3203125 C-415.25401891 1036.32859491 -430.69465541 1053.41886192 -451.95703125 1064.65234375 C-458.08228477 1067.59213789 -464.4298874 1069.51077589 -470.95703125 1071.33984375 C-455.09205039 1070.79669822 -439.2333229 1070.14592856 -423.375 1069.4375 C-421.50544755 1069.35409193 -419.63589493 1069.27068743 -417.76634216 1069.18728638 C-416.35111629 1069.12413962 -416.35111629 1069.12413962 -414.9073 1069.05971718 C-413.95280555 1069.01712965 -412.9983111 1068.97454212 -412.01489258 1068.93066406 C-411.05044063 1068.88761831 -410.08598867 1068.84457256 -409.09231091 1068.8002224 C-295.59067881 1063.74037202 -295.59067881 1063.74037202 -256.95703125 1064.33984375 C-257.0034375 1063.15390625 -257.04984375 1061.96796875 -257.09765625 1060.74609375 C-257.68062886 1039.41993594 -252.55756968 1021.47728096 -237.95703125 1005.33984375 C-237.291875 1004.581875 -236.62671875 1003.82390625 -235.94140625 1003.04296875 C-221.65531908 987.6986529 -202.49930292 980.80169972 -181.95703125 979.08984375 C-159.75104685 978.56112984 -138.44958444 986.00487298 -121.7421875 1000.62109375 C-109.16480939 1012.89859047 -100.58272644 1029.70006592 -99.87263489 1047.44940186 C-99.8533343 1049.57146278 -99.8636287 1051.69054228 -99.890625 1053.8125 C-99.8954187 1054.54150513 -99.9002124 1055.27051025 -99.90515137 1056.02160645 C-99.91750782 1057.7943935 -99.93655681 1059.56713187 -99.95703125 1061.33984375 C-99.05382771 1061.33800016 -98.15062416 1061.33615658 -97.22005081 1061.33425713 C116.85280692 1060.90475223 116.85280692 1060.90475223 208.86574554 1063.25899506 C212.09106864 1063.34106772 215.31643076 1063.42141075 218.54180908 1063.50128174 C312.43622926 1065.8313737 406.32132381 1069.45049707 699.04296875 1107.33984375 C700.48046875 1110.83984375 700.48046875 1110.83984375 700.04296875 1114.33984375 C680.98705442 1137.87950263 612.29681702 1137.06157079 583.87109375 1140.05859375 C499.58715956 1148.75075308 414.86961497 1153.17960926 197.06747055 1160.40306854 C194.42172428 1160.46197697 191.77600136 1160.52185312 189.13027954 1160.58184814 C122.41788849 1162.07979617 55.69866659 1162.51122648 -11.02849412 1162.468413 C-17.58361719 1162.46464172 -24.13872513 1162.46600895 -30.69384766 1162.47021484 C-97.35277365 1162.51180215 -164.00361869 1162.03371346 -230.64726257 1160.52417755 C-233.40117758 1160.461865 -236.15511616 1160.40067022 -238.90905762 1160.33953857 C-330.11281845 1158.30264207 -421.33367998 1155.09599336 -737.3984375 1116.59765625 C-738.95703125 1114.33984375 -738.95703125 1114.33984375 -739.0546875 1110.8125 C-737.95703125 1107.33984375 -737.95703125 1107.33984375 -735.640625 1105.3359375 C-668.31721781 1073.01098026 -571.47119101 1078.00220292 -497.95703125 1073.33984375 C-499.15054199 1073.15373535 -500.34405273 1072.96762695 -501.57373047 1072.77587891 C-518.19239641 1070.1329688 -518.19239641 1070.1329688 -525.08203125 1067.71484375 C-525.81301025 1067.46323486 -526.54398926 1067.21162598 -527.29711914 1066.95239258 C-539.93129789 1062.38154033 -551.04243333 1055.3833508 -560.95703125 1046.33984375 C-561.72273437 1045.65535156 -562.4884375 1044.97085937 -563.27734375 1044.265625 C-579.94123967 1028.55975794 -591.00009741 1006.38946767 -591.95703125 983.33984375 C-591.99699219 982.50195312 -592.03695312 981.6640625 -592.078125 980.80078125 C-592.75083169 952.07224854 -585.57507395 923.14481383 -565.5546875 901.78515625 C-547.15081077 884.46060462 -523.81074023 878.10834233 -499.01953125 878.27734375 C-497.76333984 878.28185547 -496.50714844 878.28636719 -495.21289062 878.29101562 C-492.12755205 878.30274695 -489.04232533 878.32003935 -485.95703125 878.33984375 C-482.43802159 870.79733826 -479.2332337 863.17857526 -476.21875 855.421875 C-475.56101845 853.74127235 -475.56101845 853.74127235 -474.88999939 852.02671814 C-473.47216117 848.40296867 -472.0582563 844.77769962 -470.64453125 841.15234375 C-468.67966912 836.121384 -466.71139756 831.09175921 -464.7421875 826.0625 C-464.49725807 825.43666393 -464.25232864 824.81082787 -463.99997711 824.16602707 C-460.69546496 815.72540725 -457.35078798 807.30202762 -453.953125 798.8984375 C-453.57498154 797.96171707 -453.19683807 797.02499664 -452.80723572 796.05989075 C-451.05708086 791.72738858 -449.29927304 787.39822709 -447.5300293 783.07348633 C-446.91430043 781.55299849 -446.29880657 780.03241546 -445.68359375 778.51171875 C-445.40345932 777.8351976 -445.12332489 777.15867645 -444.83470154 776.46165466 C-443.49473384 773.13046782 -442.95703125 771.00335596 -442.95703125 767.33984375 C-445.11660527 765.52512868 -445.11660527 765.52512868 -448.01953125 763.90234375 C-477.73934782 745.01203581 -501.64534386 712.70815917 -509.95703125 678.33984375 C-511.03670166 678.38061035 -512.11637207 678.42137695 -513.22875977 678.46337891 C-565.26517769 680.36363615 -619.5496406 677.52214664 -667.60571289 655.10424805 C-670.20585048 653.9696621 -670.20585048 653.9696621 -673.56640625 655.9375 C-674.953878 656.74678839 -676.33372049 657.56925125 -677.70703125 658.40234375 C-691.72671979 666.38993131 -706.00654851 669.51365663 -722.08203125 669.58984375 C-723.14679688 669.61046875 -724.2115625 669.63109375 -725.30859375 669.65234375 C-735.96194357 669.70405904 -745.5753073 667.617623 -755.01953125 662.65234375 C-755.69580566 662.30276611 -756.37208008 661.95318848 -757.06884766 661.59301758 C-777.85317241 650.58388997 -792.16642477 631.88981828 -799.21484375 609.5390625 C-808.11853047 577.78257986 -804.9225314 544.06869185 -788.95800781 515.11328125 C-775.56387088 491.38279085 -754.93801599 470.72309185 -729.95703125 459.33984375 C-729.29703125 459.33984375 -728.63703125 459.33984375 -727.95703125 459.33984375 C-727.67811035 458.6029834 -727.39918945 457.86612305 -727.11181641 457.10693359 C-725.30694013 452.78209899 -722.80271423 448.93705489 -720.33203125 444.96484375 C-719.76226563 444.04799805 -719.1925 443.13115234 -718.60546875 442.18652344 C-705.45866233 421.25505093 -690.82221866 401.2891569 -674.95703125 382.33984375 C-674.54275879 381.8406543 -674.12848633 381.34146484 -673.70166016 380.82714844 C-667.19942884 372.99365687 -660.45488021 365.43252059 -653.50390625 357.99560547 C-650.83462145 355.13842594 -648.17635697 352.2711041 -645.51953125 349.40234375 C-645.03556885 348.88285156 -644.55160645 348.36335938 -644.05297852 347.828125 C-640.89918878 344.42490465 -637.90170457 340.92582524 -634.95703125 337.33984375 C-635.34375 336.65921875 -635.73046875 335.97859375 -636.12890625 335.27734375 C-646.50420798 315.96490093 -648.04033618 294.08221093 -642.11328125 273.046875 C-640.56124758 268.07092922 -638.88430414 263.1819419 -636.95703125 258.33984375 C-650.84401384 256.17960339 -664.75237208 254.28275313 -678.69897461 252.55004883 C-681.94372828 252.1462209 -685.18768697 251.7363716 -688.43164062 251.32617188 C-690.51167411 251.06604905 -692.59175064 250.80627016 -694.671875 250.546875 C-695.63326889 250.42504349 -696.59466278 250.30321198 -697.58518982 250.1776886 C-698.92928673 250.01202644 -698.92928673 250.01202644 -700.30053711 249.84301758 C-701.47246864 249.69670647 -701.47246864 249.69670647 -702.66807556 249.54743958 C-707.84646583 248.91919808 -707.84646583 248.91919808 -712.32421875 251.140625 C-713.15179687 251.96949219 -713.979375 252.79835938 -714.83203125 253.65234375 C-733.17785646 271.24496793 -759.24265073 287.74117948 -785.20703125 288.71484375 C-792.78910309 288.44049247 -800.09835895 286.2447787 -805.95703125 281.33984375 C-812.41174705 274.12998014 -813.44226965 266.5648597 -813.26171875 257.0859375 C-811.59103776 236.54512895 -798.43865368 220.84028826 -784.95703125 206.33984375 C-784.37824219 205.6953125 -783.79945313 205.05078125 -783.203125 204.38671875 C-767.11996236 187.26012946 -742.98754783 171.43440545 -718.98828125 169.94140625 C-709.71891107 169.65819529 -701.47665003 170.13076307 -693.26953125 174.90234375 C-685.41615599 183.18022578 -682.5151761 192.25601839 -682.6875 203.44140625 C-683.13580704 208.26233126 -684.50750082 212.74045989 -685.95703125 217.33984375 C-685.15193115 217.37722656 -684.34683105 217.41460937 -683.51733398 217.453125 C-671.27350565 218.13748447 -659.17257786 219.74231298 -647.01953125 221.33984375 C-644.89133159 221.61631339 -642.76307665 221.89235778 -640.63476562 222.16796875 C-636.73671037 222.67314279 -632.83901848 223.18095987 -628.94165039 223.69140625 C-628.09713318 223.79844879 -627.25261597 223.90549133 -626.38250732 224.01577759 C-624.79320052 224.22812376 -623.20679797 224.46380276 -621.62481689 224.72518921 C-619.74766007 225.02111238 -617.85155653 225.19131023 -615.95703125 225.33984375 C-613.64639341 223.53843739 -612.31379584 222.21939892 -610.58203125 219.96484375 C-609.63521364 218.8406207 -608.6846355 217.71955483 -607.73046875 216.6015625 C-607.26350586 216.04388184 -606.79654297 215.48620117 -606.31542969 214.91162109 C-588.37380903 194.15170847 -556.75919828 175.88511969 -529.95703125 170.33984375 C-528.96703125 170.33984375 -527.97703125 170.33984375 -526.95703125 170.33984375 C-526.81007813 168.70402344 -526.81007813 168.70402344 -526.66015625 167.03515625 C-523.62907599 135.59429929 -513.8690927 108.95590137 -493.95703125 84.33984375 C-494.37275391 83.52193359 -494.37275391 83.52193359 -494.796875 82.6875 C-498.45323964 75.07549533 -500.03360178 68.10992328 -497.87890625 59.796875 C-490.25646531 39.481132 -471.42358878 26.10585746 -452.47363281 17.11816406 C-442.91417443 12.78119307 -433.2110209 9.56953556 -422.95703125 7.33984375 C-421.83312988 7.09427734 -421.83312988 7.09427734 -420.68652344 6.84375 C-391.72168812 0.89089213 -351.9520264 0.06410275 -325.6484375 15.25 C-322.9347051 17.12459245 -320.29391383 19.00296117 -317.95703125 21.33984375 C-316.32913306 21.63817839 -314.69107866 21.88137972 -313.05078125 22.1015625 C-280.30992916 26.69379249 -245.12859168 34.2504514 -217.24609375 53.078125 C-205.98097066 61.03771979 -205.98097066 61.03771979 -192.70019531 61.84790039 C-189.43273617 61.05784803 -186.26492501 60.08249257 -183.08178711 59.00561523 C-160.67893456 51.98590032 -128.95088431 57.46422958 -106.95703125 63.33984375 C-106.70034668 62.63263184 -106.44366211 61.92541992 -106.17919922 61.19677734 C-104.85302787 58.09672598 -103.23880666 55.45613553 -101.40234375 52.62890625 C-100.70496094 51.54867187 -100.00757813 50.4684375 -99.2890625 49.35546875 C-98.55365827 48.22508286 -97.81797918 47.09487574 -97.08203125 45.96484375 C-90.78080888 36.29730003 -90.78080888 36.29730003 -84.95703125 26.33984375 C-85.9728125 25.92734375 -86.98859375 25.51484375 -88.03515625 25.08984375 C-101.07516366 19.67346994 -115.46480554 13.25202905 -122.14453125 -0.01953125 C-123.79340435 -4.40671147 -124.74957757 -8.17879045 -122.95703125 -12.66015625 C-97.68557124 -41.62295312 -26.1894781 -18.15314893 0 0 Z M-311.95703125 48.33984375 C-312.26253906 48.9946875 -312.56804687 49.64953125 -312.8828125 50.32421875 C-323.97996324 72.45600107 -347.09699793 86.01184242 -369.95703125 93.71484375 C-379.1302401 96.64218545 -388.47970294 98.68333017 -397.95703125 100.33984375 C-399.21644531 100.56671875 -400.47585938 100.79359375 -401.7734375 101.02734375 C-411.69843151 102.49318902 -421.63186856 102.51900195 -431.64453125 102.52734375 C-432.34564026 102.5284314 -433.04674927 102.52951904 -433.769104 102.53063965 C-435.83576431 102.53027698 -437.9021388 102.5218436 -439.96875 102.5078125 C-440.63720947 102.50347198 -441.30566895 102.49913147 -441.99438477 102.49465942 C-447.7054297 102.41950952 -453.33634841 101.8907409 -459.00415039 101.21020508 C-462.66539327 101.37094257 -464.03113484 102.40378282 -466.70703125 104.83984375 C-468.18946387 106.62041924 -469.60059429 108.46151089 -470.95703125 110.33984375 C-471.36937012 110.89333496 -471.78170898 111.44682617 -472.20654297 112.01708984 C-483.07284777 126.72571354 -491.95703125 145.65079055 -491.95703125 164.33984375 C-491.22291016 164.38471924 -490.48878906 164.42959473 -489.73242188 164.47583008 C-461.70872367 166.23718181 -431.43204239 169.12547389 -409.81640625 189.22265625 C-407.9762578 190.59138804 -407.9762578 190.59138804 -405.60400391 190.02612305 C-403.12263775 189.38278046 -401.0484148 188.58893479 -398.74609375 187.4765625 C-397.93035889 187.09056885 -397.11462402 186.7045752 -396.27416992 186.30688477 C-395.38576416 185.88463623 -394.4973584 185.4623877 -393.58203125 185.02734375 C-351.4921796 165.53268543 -306.39309162 151.46373478 -260.95703125 142.33984375 C-260.98059692 141.46416748 -260.98059692 141.46416748 -261.00463867 140.57080078 C-261.06785153 137.8689178 -261.10629048 135.16719116 -261.14453125 132.46484375 C-261.16966797 131.54703125 -261.19480469 130.62921875 -261.22070312 129.68359375 C-261.40811379 111.94205102 -251.3191194 97.90543973 -239.39453125 85.52734375 C-236.16604974 82.38812901 -232.68856717 79.85291896 -228.95703125 77.33984375 C-246.16303713 58.07686603 -287.5327802 51.5580183 -311.95703125 48.33984375 Z M-6.95703125 153.33984375 C-7.00859375 154.38140625 -7.06015625 155.42296875 -7.11328125 156.49609375 C-8.47193629 175.68427505 -18.03068512 191.25846693 -31.95703125 204.33984375 C-33.62730932 206.00289118 -35.29461807 207.66893442 -36.95703125 209.33984375 C-36.23 210.35820312 -35.50296875 211.3765625 -34.75390625 212.42578125 C-10.341227 246.73893025 12.01931717 282.59654464 31.93359375 319.70703125 C32.38629639 320.54371338 32.83899902 321.38039551 33.30541992 322.24243164 C34.14638237 323.80133122 34.97794755 325.36535281 35.7980957 326.93530273 C37.84817076 330.73301337 37.84817076 330.73301337 40.8515625 333.76953125 C44.04994142 334.60190794 47.26169586 334.87217062 50.54296875 335.15234375 C85.10962411 338.77475524 114.80439056 355.41036539 141.04296875 377.33984375 C142.70647065 378.67712344 144.37224216 380.01160122 146.04296875 381.33984375 C151.40462198 379.87757469 154.36134127 376.25157295 158.04296875 372.33984375 C163.04296875 367.33984375 163.04296875 367.33984375 164.51953125 366.00390625 C179.70135577 351.82940658 189.95748059 331.97355028 196.04296875 312.33984375 C195.4603125 312.19474365 194.87765625 312.04964355 194.27734375 311.90014648 C181.65107438 308.71504099 169.72140548 305.13234837 158.04296875 299.33984375 C156.92792969 298.79585937 155.81289062 298.251875 154.6640625 297.69140625 C124.49594608 282.22616245 98.21171964 255.7172063 87.31103516 223.15332031 C82.59972234 207.4629974 82.69282063 192.60780858 89.04296875 177.33984375 C59.82673995 165.33966987 24.93934373 153.33984375 -6.95703125 153.33984375 Z M-265.51953125 173.21484375 C-266.19675232 173.367789 -266.87397339 173.52073425 -267.57171631 173.67831421 C-309.48306323 183.2117206 -350.0367447 197.09896749 -388.95703125 215.33984375 C-388.7461084 216.02054932 -388.53518555 216.70125488 -388.31787109 217.40258789 C-387.49974739 220.0428962 -386.69678913 222.67603671 -385.95703125 225.33984375 C-385.78131592 225.96793945 -385.60560059 226.59603516 -385.42456055 227.24316406 C-378.93612008 252.86943367 -385.98145529 279.0329744 -399.06738281 301.22265625 C-404.4781273 309.91101644 -411.17034004 317.70872552 -417.95703125 325.33984375 C-418.82908203 326.32210937 -418.82908203 326.32210937 -419.71875 327.32421875 C-432.97424185 341.34766101 -450.58455521 352.25588726 -467.95703125 360.33984375 C-467.40267407 365.97489233 -466.32632287 370.93510207 -464.47265625 376.2734375 C-464.2210675 377.01570084 -463.96947876 377.75796417 -463.71026611 378.52272034 C-462.88526706 380.94427555 -462.04732407 383.36105619 -461.20703125 385.77734375 C-460.7740271 387.03212524 -460.7740271 387.03212524 -460.33227539 388.31225586 C-448.04672597 423.86645368 -433.54589937 458.57738898 -416.95703125 492.33984375 C-416.39008545 492.17379639 -415.82313965 492.00774902 -415.23901367 491.83666992 C-370.03438725 478.72419 -325.77258268 480.23173276 -283.95703125 503.02734375 C-267.40147668 512.78700363 -252.69176668 525.10786221 -240.95703125 540.33984375 C-240.22871094 541.24089844 -239.50039063 542.14195312 -238.75 543.0703125 C-231.16901446 552.6959071 -224.16421738 563.77582941 -219.95703125 575.33984375 C-165.96053953 559.87351195 -113.82975969 539.04867972 -62.95703125 515.33984375 C-63.63271425 511.04152296 -65.09329172 507.34584405 -66.76953125 503.33984375 C-79.78142886 471.32613577 -81.42467138 435.56954549 -67.95703125 403.33984375 C-54.71781872 373.63948643 -32.36021329 354.42667849 -3.11669922 341.32617188 C-1.03783523 340.37674722 1.00541288 339.37453557 3.04296875 338.33984375 C1.41464466 332.18725211 -1.85635657 327.07230691 -5.08203125 321.65234375 C-6.00495972 320.08794556 -6.00495972 320.08794556 -6.9465332 318.49194336 C-8.26385874 316.26077804 -9.58367985 314.03108462 -10.90576172 311.80273438 C-12.62243084 308.90842062 -14.32791153 306.00770143 -16.0295105 303.10450745 C-23.34091028 290.63064087 -30.72301772 278.2254014 -38.73193359 266.18261719 C-39.92492171 264.38814244 -41.1079491 262.58746256 -42.2890625 260.78515625 C-47.57223565 252.757549 -53.03601494 244.85659973 -58.51953125 236.96484375 C-59.23520264 235.93472168 -59.95087402 234.90459961 -60.68823242 233.84326172 C-61.3557251 232.88564941 -62.02321777 231.92803711 -62.7109375 230.94140625 C-63.61307983 229.64710693 -63.61307983 229.64710693 -64.53344727 228.32666016 C-65.80626336 226.4362969 -65.80626336 226.4362969 -66.95703125 225.33984375 C-71.65035568 225.78925928 -76.20784434 226.55063657 -80.83328247 227.47276306 C-90.29619233 229.32640319 -99.45706265 229.86042586 -109.08203125 229.77734375 C-109.83816711 229.77430237 -110.59430298 229.77126099 -111.37335205 229.76812744 C-124.54892276 229.69028422 -137.13126925 228.51009418 -149.95703125 225.33984375 C-150.83423828 225.12553711 -151.71144531 224.91123047 -152.61523438 224.69042969 C-171.89462347 219.84590141 -190.47640092 212.80484611 -207.95703125 203.33984375 C-209.01148438 202.77652344 -210.0659375 202.21320313 -211.15234375 201.6328125 C-223.99366613 194.47452966 -238.18924619 184.3748354 -246.54296875 171.98828125 C-247.24292969 171.17230469 -247.24292969 171.17230469 -247.95703125 170.33984375 C-253.98270022 170.33984375 -259.66392241 171.88861885 -265.51953125 173.21484375 Z M-612.83886719 364.86523438 C-613.53270508 365.56841797 -614.22654297 366.27160156 -614.94140625 366.99609375 C-616.09769531 368.16011719 -616.09769531 368.16011719 -617.27734375 369.34765625 C-618.48003906 370.58128906 -618.48003906 370.58128906 -619.70703125 371.83984375 C-620.49335937 372.63132812 -621.2796875 373.4228125 -622.08984375 374.23828125 C-626.90514629 379.11757452 -631.49306806 384.13950133 -635.95703125 389.33984375 C-637.00255532 390.5311349 -638.04940611 391.72126314 -639.09765625 392.91015625 C-646.34186215 401.17363584 -653.29023676 409.60436504 -659.95703125 418.33984375 C-660.45090332 418.98598633 -660.94477539 419.63212891 -661.45361328 420.29785156 C-673.74773181 433.94966838 -673.74773181 433.94966838 -680.95703125 449.33984375 C-679.98765625 449.48679687 -679.01828125 449.63375 -678.01953125 449.78515625 C-654.6303378 453.58660006 -633.2915451 463.43113319 -619.12890625 483.0390625 C-604.30535546 505.56766037 -601.65116623 532.8952463 -606.54907227 559.0637207 C-606.98374111 561.16554629 -607.45767706 563.25248427 -607.95703125 565.33984375 C-608.12332031 566.03835449 -608.28960938 566.73686523 -608.4609375 567.45654297 C-612.80031466 584.97878721 -620.2962752 603.69400566 -631.85546875 617.68359375 C-633.233928 619.42465054 -633.233928 619.42465054 -632.95703125 622.33984375 C-603.76020381 631.30603674 -575.15433774 636.6330236 -544.51953125 636.58984375 C-543.82751617 636.58915894 -543.1355011 636.58847412 -542.42251587 636.58776855 C-528.34423373 637.32605338 -528.34423373 637.32605338 -514.95703125 634.33984375 C-514.55356117 632.42297376 -514.55356117 632.42297376 -514.46484375 630.09765625 C-514.40208252 629.20602783 -514.33932129 628.31439941 -514.2746582 627.39575195 C-514.17930786 625.94495239 -514.17930786 625.94495239 -514.08203125 624.46484375 C-510.90065591 584.79254637 -493.50825131 548.25979079 -463.95703125 521.33984375 C-460.6802931 518.5969562 -457.34894708 515.93866027 -453.95703125 513.33984375 C-454.80297426 511.46215629 -455.64891952 509.58446983 -456.49487305 507.70678711 C-457.28249828 505.95675041 -458.06906701 504.20623794 -458.85473633 502.45532227 C-461.20340689 497.22316177 -463.5682477 491.99913573 -465.95703125 486.78515625 C-479.04326441 458.10032829 -490.4053746 428.86373844 -500.67333984 399.06005859 C-502.19194669 394.65904468 -503.73111608 390.26546299 -505.27368164 385.87280273 C-506.50601808 382.36339995 -507.73175819 378.85171793 -508.95703125 375.33984375 C-509.51237549 375.43072266 -510.06771973 375.52160156 -510.63989258 375.61523438 C-543.06678329 380.76288366 -575.75083037 380.56965757 -605.1640625 364.6953125 C-608.42006296 363.11512766 -609.92749586 362.50531636 -612.83886719 364.86523438 Z M-45.19921875 552.7265625 C-46.24867676 553.24581299 -47.29813477 553.76506348 -48.37939453 554.30004883 C-49.51876465 554.87005615 -50.65813477 555.44006348 -51.83203125 556.02734375 C-54.30210033 557.24112427 -56.77713043 558.44450233 -59.25390625 559.64453125 C-59.89260651 559.95399185 -60.53130676 560.26345245 -61.18936157 560.58229065 C-104.81627941 581.62084872 -151.07033097 598.29040169 -197.37524414 612.35888672 C-198.62426514 612.73932129 -199.87328613 613.11975586 -201.16015625 613.51171875 C-202.26004883 613.84268555 -203.35994141 614.17365234 -204.49316406 614.51464844 C-206.87430927 615.10847593 -206.87430927 615.10847593 -207.95703125 616.33984375 C-208.00839632 618.38607582 -207.99214878 620.43404234 -207.94921875 622.48046875 C-207.93020508 623.76888672 -207.91119141 625.05730469 -207.89160156 626.38476562 C-207.88116821 627.07111084 -207.87073486 627.75745605 -207.85998535 628.46459961 C-207.35944412 666.51884817 -217.23380056 702.09272461 -240.95703125 732.33984375 C-241.94703125 733.32984375 -241.94703125 733.32984375 -242.95703125 734.33984375 C-242.77650606 738.48687743 -240.02065181 740.6489199 -237.21484375 743.4453125 C-236.73183807 743.92881668 -236.2488324 744.41232086 -235.75119019 744.91047668 C-234.72410828 745.9352192 -233.69333435 746.95627262 -232.65917969 747.97387695 C-231.11362407 749.49622531 -229.58141904 751.03103 -228.05078125 752.56835938 C-221.6719824 758.92828185 -215.00285877 764.71740847 -207.95703125 770.33984375 C-206.86721261 771.26323319 -205.78261318 772.19287834 -204.70703125 773.1328125 C-186.98737248 788.56200402 -167.38315597 801.47774487 -147.33203125 813.65234375 C-146.71038086 814.03173096 -146.08873047 814.41111816 -145.44824219 814.80200195 C-142.41499142 816.73809746 -142.41499142 816.73809746 -138.95703125 817.33984375 C-138.86728027 816.7070752 -138.7775293 816.07430664 -138.68505859 815.42236328 C-133.51067569 779.79451385 -119.93720228 747.64902184 -90.22265625 725.44921875 C-63.44849557 706.53776014 -31.74369139 698.82073618 0.73144531 703.93017578 C24.13792235 708.07847199 44.76331552 719.13346091 62.04296875 735.33984375 C64.81781108 731.17758026 65.6803855 726.8408664 66.91796875 722.02734375 C67.1819043 721.00350586 67.44583984 719.97966797 67.71777344 718.92480469 C69.45787965 712.01736722 70.99644229 705.09400158 72.29296875 698.08984375 C72.44362793 697.29022217 72.59428711 696.49060059 72.74951172 695.66674805 C75.44076929 680.36835642 76.37575072 665.09210338 76.30371094 649.57861328 C76.29297425 646.84124626 76.30369487 644.10453513 76.31640625 641.3671875 C77.17186939 622.37135989 77.17186939 622.37135989 73.04296875 604.33984375 C70.32900325 603.8628997 67.65006701 603.48899138 64.91796875 603.15234375 C29.53648179 598.12300441 -10.64702115 579.22912099 -34.3996582 551.66577148 C-37.95389016 548.63974331 -41.62318153 550.92976834 -45.19921875 552.7265625 Z M-487.95703125 1072.33984375 C-487.95703125 1072.66984375 -487.95703125 1072.99984375 -487.95703125 1073.33984375 C-485.64703125 1073.33984375 -483.33703125 1073.33984375 -480.95703125 1073.33984375 C-480.95703125 1073.00984375 -480.95703125 1072.67984375 -480.95703125 1072.33984375 C-483.26703125 1072.33984375 -485.57703125 1072.33984375 -487.95703125 1072.33984375 Z " fill="#392DC6" transform="translate(1235.95703125,154.66015625)"/>
<path d="M0 0 C14.00880272 12.25539527 22.86744124 28.75854357 24.75 47.3125 C24.86308419 50.13913462 24.85238832 52.95690078 24.81640625 55.78515625 C24.81161255 56.51416138 24.80681885 57.2431665 24.80187988 57.9942627 C24.78952343 59.76704975 24.77047444 61.53978812 24.75 63.3125 C25.65320354 63.31065641 26.55640709 63.30881283 27.48698044 63.30691338 C241.55983817 62.87740848 241.55983817 62.87740848 333.57277679 65.23165131 C336.79809989 65.31372397 340.02346201 65.394067 343.24884033 65.47393799 C437.14326051 67.80402995 531.02835506 71.42315332 823.75 109.3125 C825.1875 112.8125 825.1875 112.8125 824.75 116.3125 C805.69408567 139.85215888 737.00384827 139.03422704 708.578125 142.03125 C624.29419081 150.72340933 539.57664622 155.15226551 321.7745018 162.37572479 C319.12875553 162.43463322 316.48303261 162.49450937 313.83731079 162.55450439 C247.12491974 164.05245242 180.40569784 164.48388273 113.67853713 164.44106925 C107.12341406 164.43729797 100.56830612 164.4386652 94.01318359 164.44287109 C27.3542576 164.4844584 -39.29658744 164.00636971 -105.94023132 162.4968338 C-108.69414633 162.43452125 -111.44808491 162.37332647 -114.20202637 162.31219482 C-205.4057872 160.27529832 -296.62664873 157.06864961 -612.69140625 118.5703125 C-614.25 116.3125 -614.25 116.3125 -614.34765625 112.78515625 C-613.25 109.3125 -613.25 109.3125 -610.93359375 107.30859375 C-542.17331657 74.29373142 -443.45071749 79.57956125 -198.25 67.3125 C-197.51111668 67.28744762 -196.77223335 67.26239525 -196.01095963 67.23658371 C-179.57051327 66.68125837 -163.13954968 66.14375229 -146.6875 66.25 C-145.24804857 66.25506446 -143.80859526 66.25961799 -142.36914062 66.26367188 C-138.9960513 66.274198 -135.62304049 66.29113708 -132.25 66.3125 C-132.29640625 65.1265625 -132.3428125 63.940625 -132.390625 62.71875 C-132.97359761 41.39259219 -127.85053843 23.44993721 -113.25 7.3125 C-112.58484375 6.55453125 -111.9196875 5.7965625 -111.234375 5.015625 C-82.33434615 -26.02514672 -32.25186164 -25.44268226 0 0 Z " fill="#E5E6E6" transform="translate(1111.25,1152.6875)"/>
<path d="M0 0 C28.7997884 -0.54642456 55.50282624 8.70813752 76.625 28.37109375 C90.26143461 42.76934035 98.27533759 62.03158682 98.02734375 81.87109375 C97.27716646 93.21923028 94.97168319 103.92959253 89.8125 114.12109375 C89.32007813 115.10464844 88.82765625 116.08820313 88.3203125 117.1015625 C77.52654419 137.06228716 59.51718596 149.43394023 38.25 156.37109375 C8.95788734 164.71048525 -23.63358358 160.60742867 -50.42578125 146.2890625 C-69.11225502 135.81266416 -81.67174804 120.53887519 -88.1875 100.12109375 C-88.43371094 99.35023438 -88.67992187 98.579375 -88.93359375 97.78515625 C-93.63398877 79.30774136 -90.07505381 58.92019953 -80.5234375 42.6640625 C-76.82003276 36.79954086 -72.13595357 31.94138593 -67.1875 27.12109375 C-66.44628906 26.38246094 -65.70507812 25.64382813 -64.94140625 24.8828125 C-47.63045461 8.52475728 -23.43941273 0.89046789 0 0 Z " fill="#392DC6" transform="translate(995.1875,421.87890625)"/>
<path d="M0 0 C15.36221566 13.43940869 23.61471603 31.05075639 25.02734375 51.28515625 C25.78397854 72.48122479 18.81377561 93.65713468 4.5625 109.5 C-6.02132713 120.79976505 -19.20708736 129.34138145 -34.25 133.3125 C-35.00796875 133.51746094 -35.7659375 133.72242188 -36.546875 133.93359375 C-57.84932607 138.72995307 -78.80085857 134.52809629 -97.25 123.3125 C-100.82226217 120.86782191 -104.05870241 118.23256615 -107.25 115.3125 C-108.27287109 114.42691406 -108.27287109 114.42691406 -109.31640625 113.5234375 C-123.64086006 100.34830386 -131.52260448 81.06320222 -132.5 61.90625 C-133.2174138 41.07570397 -127.40985288 22.96286371 -113.25 7.3125 C-112.58484375 6.55453125 -111.9196875 5.7965625 -111.234375 5.015625 C-82.33434615 -26.02514672 -32.25186164 -25.44268226 0 0 Z " fill="#3A2EC7" transform="translate(1111.25,1152.6875)"/>
<path d="M0 0 C14.21034226 11.7497595 23.19375057 29.00892404 25.71484375 47.29296875 C27.65659916 72.53578907 24.98773034 96.10276888 8 116 C7.33097656 116.88171875 7.33097656 116.88171875 6.6484375 117.78125 C-2.42997918 129.34481984 -16.74531454 135.85681303 -31 138 C-46.82099089 139.39822317 -62.80647502 135.49468575 -75.30078125 125.44921875 C-90.14425502 112.7516247 -98.79281991 95.35677404 -101 76 C-102.27608876 50.84352676 -98.08870539 27.08910726 -80.75 7.6875 C-59.8502287 -14.70075681 -24.74572099 -17.996888 0 0 Z " fill="#392DC6" transform="translate(1499,962)"/>
<path d="M0 0 C14.61521252 11.55192303 23.42224285 26.39468715 26 45 C26.29183977 49.37898794 26.33418306 53.73727847 26.3125 58.125 C26.30686035 59.31843018 26.3012207 60.51186035 26.29541016 61.74145508 C25.98528571 84.36979308 19.40654463 106.94290057 3.50390625 123.6796875 C-9.33957043 135.5814428 -22.88763349 138.94654811 -39.95703125 138.38671875 C-46.39578048 138.00627448 -52.07178396 136.52637055 -58 134 C-59.29744141 133.49146484 -59.29744141 133.49146484 -60.62109375 132.97265625 C-74.37295617 126.9441487 -83.56213138 114.88535235 -89.5625 101.51953125 C-93.99651011 89.84066533 -96.39495484 77.46759722 -97 65 C-97.05285156 64.0821875 -97.10570312 63.164375 -97.16015625 62.21875 C-97.74060501 43.44249432 -91.80920951 25.47551754 -79.5625 11.1484375 C-58.90769595 -10.64718421 -25.64486426 -18.1776832 0 0 Z " fill="#392DC6" transform="translate(516,900)"/>
<path d="M0 0 C6.26259138 4.97946646 10.02666493 11.72858732 11.703125 19.52734375 C14.05404413 47.79025567 3.79268298 73.02149153 -14.296875 94.52734375 C-23.06467492 104.72987457 -36.52617729 115.26517074 -50.29589844 116.74169922 C-58.67152839 117.34370934 -66.1739335 117.45861094 -73.296875 112.52734375 C-74.163125 111.99109375 -75.029375 111.45484375 -75.921875 110.90234375 C-84.59947151 102.22474724 -87.6223347 90.77768429 -87.765625 78.7890625 C-87.7553125 77.79519531 -87.745 76.80132813 -87.734375 75.77734375 C-87.72535156 74.72675781 -87.71632813 73.67617188 -87.70703125 72.59375 C-87.29278422 53.88359251 -80.05629492 36.27310041 -67.296875 22.52734375 C-66.55824219 21.71934326 -66.55824219 21.71934326 -65.8046875 20.89501953 C-49.53364921 3.25670799 -23.93236897 -15.34439303 0 0 Z " fill="#392DC6" transform="translate(422.296875,550.47265625)"/>
<path d="M0 0 C18.32999382 14.89016854 34.29672096 36.43055729 37.5546875 60.3671875 C37.81794698 63.76387684 37.93530582 67.14866225 37.9921875 70.5546875 C38.02578369 71.80209717 38.02578369 71.80209717 38.06005859 73.07470703 C38.0331097 80.2218379 36.23144173 86.17956168 31.58984375 91.70703125 C30.61337891 92.49787109 30.61337891 92.49787109 29.6171875 93.3046875 C28.96878906 93.84996094 28.32039063 94.39523437 27.65234375 94.95703125 C20.99364 99.43336654 13.2872765 99.3077417 5.5546875 98.3671875 C-7.95024378 94.97581462 -18.56180977 86.82467718 -28.4453125 77.3671875 C-29.04859375 76.82707031 -29.651875 76.28695312 -30.2734375 75.73046875 C-44.49528858 62.53870501 -55.70196763 41.9829183 -56.75390625 22.53515625 C-57.11968854 11.76712701 -56.70463358 2.83985983 -50.0703125 -6.0703125 C-35.89395716 -19.90913557 -13.30681308 -10.39709581 0 0 Z " fill="#392DC6" transform="translate(1595.4453125,486.6328125)"/>
<path d="M0 0 C24.67292338 19.63481595 24.67292338 19.63481595 26.44140625 32.8984375 C26.63594443 37.23065314 26.43530385 39.39652828 24.16796875 43.22265625 C17.64278027 48.93219617 11.34090441 49.42059774 2.91796875 49.1796875 C-22.30838554 46.94610405 -49.45496046 30.19842822 -66.64453125 12.03515625 C-72.36913779 5.07989758 -76.88201075 -2.81929515 -76.21875 -12.03125 C-75.38690283 -16.59380571 -73.58288495 -18.55166079 -70.01953125 -21.40234375 C-48.90704129 -32.99351471 -16.30817895 -12.394216 0 0 Z " fill="#392DC6" transform="translate(1420.83203125,248.15234375)"/>
<path d="M0 0 C0.83281494 -0.02255859 1.66562988 -0.04511719 2.52368164 -0.06835938 C8.28471016 -0.04527602 12.86414067 1.07697851 17.625 4.4375 C20.68947307 8.74691525 21.16426754 12.2245804 20.625 17.4375 C18.72133146 25.17908539 14.17689733 29.8762086 8.625 35.4375 C8.07972656 35.994375 7.53445313 36.55125 6.97265625 37.125 C-10.37586918 53.36992967 -41.36966593 63.86832972 -64.625 64.6875 C-71.76862099 64.2112586 -77.71122463 63.41037203 -83.046875 58.26171875 C-85.56321157 54.80545646 -85.94082784 51.62058442 -85.375 47.4375 C-79.79417417 30.45810067 -62.81792735 20.23220144 -47.68505859 12.54150391 C-32.43681258 5.25418954 -16.96298558 0.30974136 0 0 Z " fill="#392DC6" transform="translate(677.375,187.5625)"/>
<path d="M0 0 C2.42069973 2.98949802 2.93751746 5.71910802 3.125 9.5625 C0.36469401 15.54316298 -4.98300305 18.21799373 -10.875 20.625 C-22.87408272 24.93521511 -35.87428783 28.12346376 -48.64453125 28.203125 C-49.37258469 28.20882507 -50.10063812 28.21452515 -50.85075378 28.22039795 C-52.391292 28.2298092 -53.93185 28.23636645 -55.47241211 28.24023438 C-57.76780244 28.24981347 -60.06224601 28.2808185 -62.35742188 28.3125 C-77.55706043 28.42198229 -92.92426675 27.37248774 -105.5625 18.125 C-107.64969355 15.03958345 -107.9361007 12.70615916 -108 9 C-106.7748558 4.38214879 -104.50156951 2.39004266 -100.625 -0.125 C-75.53107741 -13.9537372 -24.30149699 -17.78158317 0 0 Z " fill="#392DC6" transform="translate(1010,117)"/>
</svg>
